/* XPM */
static char *blockattack64[] = {
/* columns rows colors chars-per-pixel */
"64 64 64 1 ",
"  c #654500",
". c #644600",
"X c #654600",
"o c #694A00",
"O c #6A4A00",
"+ c #8F6A00",
"@ c #8F6B00",
"# c #906C00",
"$ c #936F00",
"% c #957000",
"& c #967100",
"* c #A57E00",
"= c #A67F00",
"- c #A78000",
"; c #A98200",
": c #AD8500",
"> c #EFBE00",
", c #EFBF00",
"< c #F0C000",
"1 c #FECC00",
"2 c #FFCD00",
"3 c #FFCE00",
"4 c #FFCF00",
"5 c #FFD000",
"6 c #FED100",
"7 c #FED200",
"8 c #FED300",
"9 c #FED400",
"0 c #FED600",
"q c #FED700",
"w c #FDD800",
"e c #FDD900",
"r c #FDDA00",
"t c #FDDB00",
"y c #FDDC00",
"u c #FDDD00",
"i c #FDDE00",
"p c #FCE100",
"a c #FCE200",
"s c #FCE300",
"d c #FBE600",
"f c #FBE700",
"g c #FCE400",
"h c #FCE500",
"j c #FCE600",
"k c #FBE800",
"l c #FBE900",
"z c #FBEA00",
"x c #FBEB00",
"c c #FAEF00",
"v c #FAF000",
"b c #FAF100",
"n c #FAF200",
"m c #F9F400",
"M c #F9F500",
"N c #FAF400",
"B c #F9F600",
"V c #F9F700",
"C c #F9F900",
"Z c #F9FA00",
"A c #F8FD00",
"S c #F8FE00",
"D c #F8FF00",
"F c None",
/* pixels */
"FFF...XXXX...XXX...XXX...XXX...XXX...XXX...XXX...XXX...XXXXXXFFF",
"FF....XXXX..XXXX..XXXX..XXXX..XXXX..XXXX..XXXX..XXXX..XXXXX.XXFF",
"FX...O#=::::::::::::::::::::::::::::::::::::::::::::::::;#O.XXXF",
".XX.&<2222222222222222222222222222222222222222222222222222,$XXXX",
"XX.&22222222222222222222222222222222222222222222222222222221&..X",
"XXO<22222222222222222222222222222222222222222222222222222222,OXX",
"XX#2222222222222222222222222222222222222222222222222222222221#XX",
"XX=2222222222222222222222222222222222222222222222222222222222=XX",
"..;2222222222222222222222222222222222222222222222222222222222;..",
"..;2222222222222222222222222222222222222222222222222222222222;..",
".X;2222222222222222222222222222222222222222222222222222222222;.X",
"XX;2222222222222222222222222222222222222222222222222222222222;XX",
"XX;2222222222222222222222222222272222222222222222222222222222;..",
"XX;2222222222222222222222222222MM2222222222222222222222222222;..",
"..;222222222222222222222222222kDDk222222222222222222222222222;.X",
"..;22222222222222222222222222tDDDDt22222222222222222222222222;XX",
".X;22222222222222222222222227MDDDDM22222222222222222222222222;..",
"XX;2222222222222222222222222gDDDDDDg2222222222222222222222222;..",
"XX;2222222222222222222222229DDDDDDDD7222222222222222222222222;.X",
"XX;222222222222222222222222xDDDDDDDDx222222222222222222222222;XX",
"..;22222222222222222222222tDDDDDDDDDDt22222222222222222222222;..",
"..;22222222222222222222227CDDDDDDDDDDC72222222222222222222222;..",
".X;2222222222222222222227xDDDDDDDDDDDDx7222222222222222222222;.X",
"XX;222222222222222227ykMDDDDDDDDDDDDDDDDMky722222222222222222;XX",
"XX;22222222222227yxCDDDDDDDDDDDDDDDDDDDDDDDDMxy72222222222222;..",
"XX;22222222222gMDDDDDDDDDDDDDDDDDDDDDDDDDDDDDDDDMs22222222222;..",
"..;22222222229DDDDDDDDDDDDDDDDDDDDDDDDDDDDDDDDDDDD72222222222;.X",
"..;22222222222zDDDDDDDDDDDDDDDDDDDDDDDDDDDDDDDDDDk22222222222;XX",
".X;222222222222MDDDDDDDDDDDDDDDDDDDDDDDDDDDDDDDDM222222222222;..",
"XX;2222222222227CDDDDDDDDDDDDDDDDDDDDDDDDDDDDDDC7222222222222;..",
"XX;22222222222229DDDDDDDDDDDDDDDDDDDDDDDDDDDDDD92222222222222;.X",
"XX;22222222222222yDDDDDDDDDDDDDDDDDDDDDDDDDDDDy22222222222222;XX",
"..;222222222222222aDDDDDDDDDDDDDDDDDDDDDDDDDDa222222222222222;..",
"..;2222222222222222kDDDDDDDDDDDDDDDDDDDDDDDDg2222222222222222-..",
"..;22222222222222222xDDDDDDDDDDDDDDDDDDDDDDb22222222222222222;..",
"..;222222222222222227DDDDDDDDDDDDDDDDDDDDDD722222222222222222;.O",
"O.;222222222222222222DDDDDDDDDDDDDDDDDDDDDD222222222222222222;..",
"..;222222222222222221DDDDDDDDDDDDDDDDDDDDDD122222222222222222;..",
"..;222222222222222227DDDDDDDDDDDDDDDDDDDDDD722222222222222222;.X",
"..;222222222222222229DDDDDDDDDDDDDDDDDDDDDD922222222222222222;XX",
".X;22222222222222222tDDDDDDDDDDDDDDDDDDDDDDt22222222222222222;..",
"XX;22222222222222222yDDDDDDDDDDDDDDDDDDDDDDy22222222222222222;..",
"XX;22222222222222222aDDDDDDDDDDDDDDDDDDDDDDa22222222222222222;.X",
"XX;22222222222222222aDDDDDDDDDDxxDDDDDDDDDDa22222222222222222;XX",
"..;22222222222222222gDDDDDDDMs2227aCDDDDDDDg22222222222222222;..",
"..;22222222222222222kDDDDDxy22222222yxDDDDDk22222222222222222;..",
".X;22222222222222222kDDCg92222222222227gCDDg22222222222222222;.X",
"XX;222222222222222229gt222222222222222222tgt22222222222222222;XX",
"XX;2222222222222222222222222222222222222222222222222222222222;..",
"XX;2222222222222222222222222222222222222222222222222222222222;..",
"..;2222222222222222222222222222222222222222222222222222222222;.X",
"..;2222222222222222222222222222222222222222222222222222222222;XX",
".X;2222222222222222222222222222222222222222222222222222222222;..",
"XX;2222222222222222222222222222222222222222222222222222222222;..",
"XX;2222222222222222222222222222222222222222222222222222222222;.X",
"XX;2222222222222222222222222222222222222222222222222222222222;XX",
"..=2222222222222222222222222222222222222222222222222222222222=..",
"..#2222222222222222222222222222222222222222222222222222222222+..",
"XXO,22222222222222222222222222222222222222222222222222222222,O..",
"XX.$12222222222222222222222222222222222222222222222222222222$XX.",
"XXXX&,2222222222222222222222222222222222222222222222222211,$.XXX",
"FXXX.O#=::::::::::::::::::::::::::::::::::::::::::::::::=#OXXXXF",
"FFXXXXXX..XXXX..XXXX..XXXX..XXXX..XXXX..XXXX..XXXX..XXXX..XXXXFF",
"FFFXXXX...XXX...XXX...XXX...XXX...XXX...XXX...XXX...XXXXXXXXXFFF"
};
