/* XPM */
static char *blockattack32[] = {
/* columns rows colors chars-per-pixel */
"32 32 46 1 ",
"  c #644600",
". c #654600",
"X c #906C00",
"o c #916D00",
"O c #C99D00",
"+ c #C99E00",
"@ c #D4A700",
"# c #D6A900",
"$ c #FECC00",
"% c #FFCD00",
"& c #FFCE00",
"* c #FFCF00",
"= c #FFD000",
"- c #FED200",
"; c #FED400",
": c #FED700",
"> c #FDD800",
", c #FED800",
"< c #FDDC00",
"1 c #FDDD00",
"2 c #FDDE00",
"3 c #FCDF00",
"4 c #FBE700",
"5 c #FCE500",
"6 c #FCE600",
"7 c #FBE800",
"8 c #FBE900",
"9 c #FBEA00",
"0 c #FBEB00",
"q c #FBEC00",
"w c #FAED00",
"e c #FBED00",
"r c #FAF000",
"t c #FAF100",
"y c #FAF200",
"u c #F9F400",
"i c #F9F500",
"p c #FAF400",
"a c #F9F800",
"s c #F9F900",
"d c #F9FA00",
"f c #F9FB00",
"g c #F8FD00",
"h c #F8FE00",
"j c #F8FF00",
"k c None",
/* pixels */
"k..............................k",
"..o+########################+X..",
".o%%%%%%%%%%%%%%%%%%%%%%%%%%%%X.",
".+%%%%%%%%%%%%%%%%%%%%%%%%%%%%+.",
".@%%%%%%%%%%%%%%%%%%%%%%%%%%%%@.",
".@%%%%%%%%%%%%%%%%%%%%%%%%%%%%@.",
".@%%%%%%%%%%%%%,,%%%%%%%%%%%%%@.",
".@%%%%%%%%%%%%-dd-%%%%%%%%%%%%@.",
".@%%%%%%%%%%%%0hh0%%%%%%%%%%%%@.",
".@%%%%%%%%%%%,hhhh,%%%%%%%%%%%@.",
".@%%%%%%%%%%%ihhhhi%%%%%%%%%%%@.",
".@%%%%%%%%-3thhhhhhq3-%%%%%%%%@.",
".@%%%%%30dhhhhhhhhhhhhdq3%%%%%@.",
".@%%%%%dhhhhhhhhhhhhhhhhd%%%%%@.",
".@%%%%%:hhhhhhhhhhhhhhhh:%%%%%@.",
".@%%%%%%3hhhhhhhhhhhhhh3%%%%%%@.",
".@%%%%%%%5hhhhhhhhhhhh5%%%%%%%#.",
".@%%%%%%%%thhhhhhhhhht%%%%%%%%@.",
".@%%%%%%%%5hhhhhhhhhh5%%%%%%%%@.",
".@%%%%%%%%9hhhhhhhhhh0%%%%%%%%@.",
".@%%%%%%%%qjhhhhhhhhhq%%%%%%%%@.",
".@%%%%%%%%tjhhhhhhhhht%%%%%%%%@.",
".@%%%%%%%%ihht3%%3thht%%%%%%%%@.",
".@%%%%%%%%04-%$%%%%-00%%%%%%%%@.",
".@%%%%%%%%%%%%%%%%%%%%%%%%%%%%@.",
".@%%%%%%%%%%%%%%%%%%%%%%%%%%%%@.",
".@%%%%%%%%%%%%%%%%%%%%%%%%%%%%@.",
".@%%%%%%%%%%%%%%%%%%%%%%%%%%%%@.",
".+%%%%%%%%%%%%%%%%%%%%%%%%%%%%O ",
".X%%%%%%%%%%%%%%%%%%%%%%%%%%%%X.",
"..o+########################+o..",
"k..............................k"
};
