/* XPM */
static char * blockattack32_xpm[] = {
"32 32 185 2",
"  	c None",
". 	c #646415",
"+ 	c #95952C",
"@ 	c #96962E",
"# 	c #A4A449",
"$ 	c #8D8D1F",
"% 	c #8E8E1F",
"& 	c #8E8E21",
"* 	c #CBCB89",
"= 	c #B6B61E",
"- 	c #8E8E20",
"; 	c #84B55F",
"> 	c #36A036",
", 	c #37A037",
"' 	c #6FBD6F",
") 	c #A0A01E",
"! 	c #E6E61E",
"~ 	c #7AAC55",
"{ 	c #1F8D1F",
"] 	c #1F8C1F",
"^ 	c #2F942F",
"/ 	c #A1DBA1",
"( 	c #8C8C1F",
"_ 	c #C2C21E",
": 	c #FCFC1F",
"< 	c #9C9C1E",
"[ 	c #1F8E1F",
"} 	c #1EAC1E",
"| 	c #2B922B",
"1 	c #97D797",
"2 	c #C0C01E",
"3 	c #D9D91E",
"4 	c #F2F21F",
"5 	c #FFFF1F",
"6 	c #E5E51E",
"7 	c #D7D71E",
"8 	c #A7A71E",
"9 	c #1EAB1E",
"0 	c #1BF31B",
"a 	c #1E981E",
"b 	c #91911F",
"c 	c #D0D01E",
"d 	c #FEFE1F",
"e 	c #F6F61F",
"f 	c #B2B21E",
"g 	c #1CE41C",
"h 	c #1BFF1B",
"i 	c #1CCA1C",
"j 	c #CECE1E",
"k 	c #FDFD1F",
"l 	c #A8A81E",
"m 	c #1EB01E",
"n 	c #1BFE1B",
"o 	c #1BF81B",
"p 	c #1E9B1E",
"q 	c #DCDC1E",
"r 	c #F5F51E",
"s 	c #B4B41E",
"t 	c #1F901F",
"u 	c #1CE81C",
"v 	c #1CD01C",
"w 	c #94941E",
"x 	c #F2F21E",
"y 	c #BBBB1E",
"z 	c #95951F",
"A 	c #D8D81E",
"B 	c #D5D51E",
"C 	c #1DB61D",
"D 	c #1BF91B",
"E 	c #1E9F1E",
"F 	c #A2A21E",
"G 	c #A5A51E",
"H 	c #8F8F1F",
"I 	c #7AB255",
"J 	c #1BEC1B",
"K 	c #1CD61C",
"L 	c #5F5F14",
"M 	c #74D24C",
"N 	c #1BFA1B",
"O 	c #1EA41E",
"P 	c #660909",
"Q 	c #702410",
"R 	c #663E10",
"S 	c #664010",
"T 	c #734713",
"U 	c #9C4526",
"V 	c #9E6245",
"W 	c #5FE44D",
"X 	c #1CDA1C",
"Y 	c #640808",
"Z 	c #900C0C",
"` 	c #A2A16B",
" .	c #1BFC1B",
"..	c #1EA81E",
"+.	c #660808",
"@.	c #990D0D",
"#.	c #B61010",
"$.	c #C91313",
"%.	c #C61313",
"&.	c #AE1010",
"*.	c #940C0C",
"=.	c #900B0B",
"-.	c #A09562",
";.	c #1CDD1C",
">.	c #BA1111",
",.	c #F41A1A",
"'.	c #FF1B1B",
").	c #FE1B1B",
"!.	c #E91818",
"~.	c #A60F0F",
"{.	c #A18063",
"].	c #1E9E1E",
"^.	c #1E9D1E",
"/.	c #96D696",
"(.	c #BD1212",
"_.	c #FC1B1B",
":.	c #F51A1A",
"<.	c #A50E0E",
"[.	c #A17A62",
"}.	c #1D851D",
"|.	c #288E29",
"1.	c #4D7F81",
"2.	c #303097",
"3.	c #5656AB",
"4.	c #9C0D0D",
"5.	c #F71A1A",
"6.	c #E31717",
"7.	c #910C0C",
"8.	c #AF6F69",
"9.	c #0B2C18",
"0.	c #142B4A",
"a.	c #142C4C",
"b.	c #142C4E",
"c.	c #193662",
"d.	c #1E228D",
"e.	c #1F1F8D",
"f.	c #262690",
"g.	c #C01212",
"h.	c #A40E0E",
"i.	c #C87878",
"j.	c #1E1E8A",
"k.	c #1D1DBF",
"l.	c #1B1BF8",
"m.	c #1D1DC4",
"n.	c #252590",
"o.	c #8F0C0C",
"p.	c #D41515",
"q.	c #B41111",
"r.	c #1C1CD0",
"s.	c #1B1BFF",
"t.	c #1C1CD5",
"u.	c #D31515",
"v.	c #B21010",
"w.	c #BA1212",
"x.	c #FA1A1A",
"y.	c #A00E0E",
"z.	c #970C0C",
"A.	c #F21919",
"B.	c #DA1616",
"C.	c #B01010",
"D.	c #F91A1A",
"E.	c #ED1818",
"F.	c #AA0F0F",
"G.	c #E71818",
"H.	c #FD1B1B",
"I.	c #D81616",
"J.	c #920C0C",
"K.	c #B31111",
"L.	c #B11010",
"M.	c #9E0E0E",
"N.	c #1C1CC9",
"O.	c #1B1BFE",
"P.	c #1C1CCE",
"Q.	c #590707",
"R.	c #900D0D",
"S.	c #C66060",
"T.	c #1F1F90",
"U.	c #1E1E9D",
"V.	c #1F1F91",
"W.	c #460505",
"X.	c #4A0606",
"Y.	c #5C0808",
"Z.	c #121258",
"`.	c #151565",
" +	c #1A1A73",
"                                                                ",
"                                                                ",
"    . + @ @ @ @ @ @ @ @ @ #                                     ",
"    . $ $ $ $ $ % $ $ $ $ & *                                   ",
"    . $ $ $ $ $ = $ $ $ $ - ; > > > > > > > > > , '             ",
"    . $ $ $ $ ) ! % $ $ $ - ~ { { { ] { { { { { { ^ /           ",
"    . $ ( ( ( _ : < ( ( ( - ~ { { [ } { { { { { { | 1           ",
"    . % 2 3 3 4 5 6 3 7 8 - ~ { { 9 0 a { { { { { | 1           ",
"    . $ b c d 5 5 5 e f $ - ~ { [ g h i ] { { { { | 1           ",
"    . $ $ % j 5 5 k l $ $ - ~ { m n h o p { { { { | 1           ",
"    . $ $ $ q d r 5 s $ $ - ~ t u h h h v { { { { | 1           ",
"    . $ $ w x y z A B ( $ - ~ C n h h h D E { { { | 1           ",
"    . $ $ F G $ $ % = H $ - I J h h h h h K { { { | 1           ",
"    L $ $ $ $ $ $ $ $ $ $ & M n h h h h h N O { { | 1           ",
"  P Q R S S S S S S S S S T U V W h h h h h X [ { | 1           ",
"  Y Z Z Z Z Z Z Z Z Z Z Z Z Z Z ` h h h h h  ...{ | 1           ",
"  +.Z Z Z Z @.#.$.%.&.*.Z Z Z =.-. . . . . . .;.[ | 1           ",
"  +.Z Z Z >.,.'.'.'.).!.~.Z Z =.{.].].].].].].^.[ | /.          ",
"  +.Z Z (._.'.'.'.'.'.'.:.<.Z =.[.}.}.}.}.}.}.}.}.|.1.2.3.      ",
"  +.Z 4.5.'.'.'.'.'.'.'.'.6.7.=.8.9.0.a.b.b.b.b.b.c.d.e.f.      ",
"  +.Z g.'.'.'.'.'.'.'.'.'._.h.=.i.  j.k.l.l.l.l.l.l.l.m.n.      ",
"  +.o.p.'.'.'.'.'.'.'.'.'.'.q.=.i.  j.r.s.s.s.s.s.s.s.t.n.      ",
"  +.o.u.'.'.'.'.'.'.'.'.'.'.v.=.i.  j.r.s.s.s.s.s.s.s.t.n.      ",
"  +.Z w.'.'.'.'.'.'.'.'.'.x.y.=.i.  j.r.s.s.s.s.s.s.s.t.n.      ",
"  +.Z z.A.'.'.'.'.'.'.'.'.B.Z =.i.  j.r.s.s.s.s.s.s.s.t.n.      ",
"  +.Z Z C.D.'.'.'.'.'.'.E.4.Z =.i.  j.r.s.s.s.s.s.s.s.t.n.      ",
"  +.Z Z Z F.G.H.'.'.x.I.4.Z Z =.i.  j.r.s.s.s.s.s.s.s.t.n.      ",
"  +.Z Z Z Z J.h.K.L.M.Z Z Z Z =.i.  j.N.O.O.O.O.O.O.O.P.n.      ",
"  Q.o.Z Z Z Z Z Z Z Z Z Z Z Z R.S.  j.T.U.U.U.U.U.U.U.V.n.      ",
"    W.X.X.X.X.X.X.X.X.X.X.X.X.Y.    Z.`.`.`.`.`.`.`.`.`. +      ",
"                                                                ",
"                                                                "};
