/* XPM */
static char *blockattack16[] = {
/* columns rows colors chars-per-pixel */
"16 16 19 1 ",
"  c #644600",
". c #664600",
"X c #886500",
"o c #896600",
"O c #987300",
"+ c #9D7700",
"@ c #FFCD00",
"# c #FFD000",
"$ c #FED400",
"% c #FDDB00",
"& c #FDDC00",
"* c #FCE500",
"= c #FBED00",
"- c #FAF000",
"; c #F9F700",
": c #F9F900",
"> c #F9FA00",
", c #F8FE00",
"< c #F8FF00",
/* pixels */
".oOOOOOOOOOOOOo.",
"o@@@@@@@@@@@@@@o",
"+@@@@@@@@@@@@@@+",
"+@@@@@@&%@@@@@@+",
"+@@@@@#>>#@@@@@+",
"+@@@@$=<<=@@@@@+",
"+@@&><<<<<<>%@@+",
"+@@@;<<<<<<>@@@+",
"+@@@#>,,<>>#@@@+",
"+@@@@>,,,,>@@@@+",
"+@@@@;,,,,>@@@@+",
"+@@@@-*#@*-@@@@+",
"+@@@@@@@@@@@@@@+",
"+@@@@@@@@@@@@@@+",
"X@@@@@@@@@@@@@@X",
" XOOOOOOOOOOOOX "
};
