/* XPM */
static char * blockattack64_xpm[] = {
"64 64 398 2",
"  	c None",
". 	c #797919",
"+ 	c #9E9E39",
"@ 	c #A3A343",
"# 	c #A8A84D",
"$ 	c #CACA89",
"% 	c #3A3A0B",
"& 	c #7A7A1B",
"* 	c #8E8E22",
"= 	c #8F8F23",
"- 	c #8F8F24",
"; 	c #A3A34B",
"> 	c #DFDFAF",
", 	c #3C3C0C",
"' 	c #86861D",
") 	c #8D8D1F",
"! 	c #CACA8A",
"~ 	c #8C8C1F",
"{ 	c #8F8F1F",
"] 	c #C5C580",
"^ 	c #8B8B1F",
"/ 	c #BCBC1D",
"( 	c #92921F",
"_ 	c #C1C47D",
": 	c #59B652",
"< 	c #48B048",
"[ 	c #4EB24E",
"} 	c #72C672",
"| 	c #A6E1A6",
"1 	c #90901E",
"2 	c #E8E81E",
"3 	c #A4A41E",
"4 	c #BFC27C",
"5 	c #399832",
"6 	c #238F23",
"7 	c #248F24",
"8 	c #349734",
"9 	c #81C081",
"0 	c #BDEABD",
"a 	c #A5A51E",
"b 	c #F8F81E",
"c 	c #C2C21E",
"d 	c #35972E",
"e 	c #1F8D1F",
"f 	c #1E8C1E",
"g 	c #46A046",
"h 	c #A7DDA7",
"i 	c #C5C51E",
"j 	c #FEFE1E",
"k 	c #E0E01E",
"l 	c #90901F",
"m 	c #1F8C1F",
"n 	c #1D8C1D",
"o 	c #3A9A3A",
"p 	c #97D597",
"q 	c #E3E31E",
"r 	c #FFFF1F",
"s 	c #F7F71E",
"t 	c #9F9F1E",
"u 	c #1E991E",
"v 	c #1F911F",
"w 	c #399939",
"x 	c #95D595",
"y 	c #9E9E1E",
"z 	c #F6F61E",
"A 	c #FDFD1F",
"B 	c #BBBB1E",
"C 	c #1E921E",
"D 	c #1CD41C",
"E 	c #1DB01D",
"F 	c #AFAF1E",
"G 	c #B5B51E",
"H 	c #B4B41E",
"I 	c #CECE1E",
"J 	c #97971E",
"K 	c #1F8B1F",
"L 	c #1BF81B",
"M 	c #1CDE1C",
"N 	c #AEAE1E",
"O 	c #ECEC1E",
"P 	c #FCFC1E",
"Q 	c #FEFE1F",
"R 	c #FDFD1E",
"S 	c #C0C01D",
"T 	c #1E941E",
"U 	c #1CDD1C",
"V 	c #1BFE1B",
"W 	c #1DB41D",
"X 	c #DFDF1E",
"Y 	c #EFEF1E",
"Z 	c #1BF91B",
"` 	c #1BFF1B",
" .	c #1CE21C",
"..	c #1E951E",
"+.	c #95951E",
"@.	c #FAFA1E",
"#.	c #1BFB1B",
"$.	c #1DB81D",
"%.	c #8F8F1E",
"&.	c #D1D11E",
"*.	c #1DB91D",
"=.	c #1BFA1B",
"-.	c #1BE71B",
";.	c #1E961E",
">.	c #F0F01E",
",.	c #FAFA1F",
"'.	c #ACAC1E",
").	c #1E981E",
"!.	c #1CE51C",
"~.	c #1DBD1D",
"{.	c #FBFB1E",
"].	c #CBCB1E",
"^.	c #1BFC1B",
"/.	c #1BE81B",
"(.	c #1E9B1E",
"_.	c #CACA1E",
":.	c #E6E61E",
"<.	c #91911E",
"[.	c #1BEA1B",
"}.	c #1BFD1B",
"|.	c #1DC11D",
"1.	c #93931E",
"2.	c #BEBE1E",
"3.	c #91911F",
"4.	c #EBEB1E",
"5.	c #A2A21E",
"6.	c #35962E",
"7.	c #1DC21D",
"8.	c #1BEB1B",
"9.	c #1E9D1E",
"0.	c #ABAB1E",
"a.	c #9C9C1E",
"b.	c #DBDB1E",
"c.	c #C1C11E",
"d.	c #1CC61C",
"e.	c #1F8E1F",
"f.	c #DADA1E",
"g.	c #9B9B1E",
"h.	c #92921E",
"i.	c #C7C71E",
"j.	c #D8D81D",
"k.	c #1BED1B",
"l.	c #1EA11E",
"m.	c #8E8E1F",
"n.	c #8E8E1E",
"o.	c #93931F",
"p.	c #34AB2D",
"q.	c #1BEE1B",
"r.	c #1CCB1C",
"s.	c #BFC27B",
"t.	c #32D42B",
"u.	c #1BEF1B",
"v.	c #1EA51E",
"w.	c #35350A",
"x.	c #7A7A1A",
"y.	c #909025",
"z.	c #B2C063",
"A.	c #2FF225",
"B.	c #1CCF1C",
"C.	c #1E901E",
"D.	c #880D0D",
"E.	c #742715",
"F.	c #483F10",
"G.	c #615F15",
"H.	c #656416",
"I.	c #676516",
"J.	c #7C741D",
"K.	c #AF8034",
"L.	c #9B6437",
"M.	c #9D7245",
"N.	c #99AD63",
"O.	c #53EA43",
"P.	c #1DFE1C",
"Q.	c #1BF21B",
"R.	c #1DA71D",
"S.	c #3C0505",
"T.	c #760A0A",
"U.	c #8E1210",
"V.	c #771A0D",
"W.	c #681A0A",
"X.	c #681B0A",
"Y.	c #691C0A",
"Z.	c #80260E",
"`.	c #941B15",
" +	c #931616",
".+	c #961D1D",
"++	c #AD4E4E",
"@+	c #BCB891",
"#+	c #51F044",
"$+	c #1F901F",
"%+	c #3E0505",
"&+	c #870B0B",
"*+	c #900C0C",
"=+	c #900B0B",
"-+	c #911010",
";+	c #BF7C77",
">+	c #89D86D",
",+	c #1BF41B",
"'+	c #1DAB1D",
")+	c #410505",
"!+	c #8A0B0B",
"~+	c #8F0C0C",
"{+	c #8F0B0B",
"]+	c #8F0A0A",
"^+	c #B5625F",
"/+	c #8CCD68",
"(+	c #1CD81C",
"_+	c #1E911E",
":+	c #950C0C",
"<+	c #9D0D0D",
"[+	c #A10E0E",
"}+	c #9F0E0E",
"|+	c #980D0D",
"1+	c #920C0C",
"2+	c #B5605D",
"3+	c #8CCB67",
"4+	c #1BF71B",
"5+	c #1DAF1D",
"6+	c #960C0C",
"7+	c #AF1010",
"8+	c #CE1414",
"9+	c #E51717",
"0+	c #F11919",
"a+	c #F61919",
"b+	c #F41919",
"c+	c #EB1818",
"d+	c #D91616",
"e+	c #BC1212",
"f+	c #8CC867",
"g+	c #910C0C",
"h+	c #AB0F0F",
"i+	c #DB1616",
"j+	c #F61A1A",
"k+	c #FF1B1B",
"l+	c #FC1A1A",
"m+	c #EA1818",
"n+	c #C01212",
"o+	c #970D0D",
"p+	c #B55F5D",
"q+	c #8DA968",
"r+	c #1DAC1D",
"s+	c #BC1111",
"t+	c #FE1B1B",
"u+	c #FA1A1A",
"v+	c #D61616",
"w+	c #9E0D0D",
"x+	c #B55E5D",
"y+	c #8D9869",
"z+	c #94D494",
"A+	c #BE1212",
"B+	c #F51A1A",
"C+	c #FD1B1B",
"D+	c #DD1616",
"E+	c #8D9969",
"F+	c #1E8D1E",
"G+	c #3B9A3B",
"H+	c #7CCB80",
"I+	c #8E0B0B",
"J+	c #B01010",
"K+	c #F41A1A",
"L+	c #FC1B1B",
"M+	c #D21515",
"N+	c #8C9267",
"O+	c #1B7D1B",
"P+	c #1C801C",
"Q+	c #2A902E",
"R+	c #387F6A",
"S+	c #2D3390",
"T+	c #2B2B93",
"U+	c #313196",
"V+	c #6F6FB7",
"W+	c #980C0C",
"X+	c #E41717",
"Y+	c #F81A1A",
"Z+	c #B51111",
"`+	c #B55D5D",
" @	c #857460",
".@	c #0A390A",
"+@	c #0A380C",
"@@	c #0B3810",
"#@	c #0B3910",
"$@	c #0E451B",
"%@	c #19534F",
"&@	c #1E2C84",
"*@	c #1F1F8D",
"=@	c #1E1E8D",
"-@	c #9E9ED7",
";@	c #BB1111",
">@	c #E01717",
",@	c #970C0C",
"'@	c #B75E5E",
")@	c #DFA09F",
"!@	c #0C0D3A",
"~@	c #1D1E82",
"{@	c #1E1F88",
"]@	c #1E1F87",
"^@	c #1D1F8D",
"/@	c #1E1F8E",
"(@	c #1E2090",
"_@	c #1E1E92",
":@	c #2B2B92",
"<@	c #8F8FD0",
"[@	c #940C0C",
"}@	c #AD0F0F",
"|@	c #B75F5F",
"1@	c #E5A3A3",
"2@	c #0C0C3C",
"3@	c #1D1D87",
"4@	c #1F1F91",
"5@	c #1C1CCF",
"6@	c #1B1BF0",
"7@	c #1B1BF1",
"8@	c #1C1CD7",
"9@	c #1E1E93",
"0@	c #C31212",
"a@	c #1E1EA1",
"b@	c #1B1BFC",
"c@	c #1B1BFF",
"d@	c #1B1BFB",
"e@	c #1E1EAA",
"f@	c #D31515",
"g@	c #1E1EA3",
"h@	c #1B1BFD",
"i@	c #1E1EAE",
"j@	c #DA1616",
"k@	c #FD1A1A",
"l@	c #A70F0F",
"m@	c #9A0D0D",
"n@	c #F01919",
"o@	c #A40E0E",
"p@	c #AC0F0F",
"q@	c #920B0B",
"r@	c #D41515",
"s@	c #A60E0E",
"t@	c #E61818",
"u@	c #910B0B",
"v@	c #A90F0F",
"w@	c #E81818",
"x@	c #C51313",
"y@	c #930C0C",
"z@	c #A50E0E",
"A@	c #DC1616",
"B@	c #FB1A1A",
"C@	c #EF1919",
"D@	c #990C0C",
"E@	c #BD1212",
"F@	c #F71A1A",
"G@	c #EE1919",
"H@	c #D11414",
"I@	c #A50F0F",
"J@	c #AE1010",
"K@	c #D71515",
"L@	c #CC1414",
"M@	c #B91111",
"N@	c #A20E0E",
"O@	c #1E1E97",
"P@	c #1B1BEC",
"Q@	c #1E1E9C",
"R@	c #890B0B",
"S@	c #B55B5B",
"T@	c #E29797",
"U@	c #1E1E99",
"V@	c #1D1DAD",
"W@	c #1D1DAE",
"X@	c #1E1E9D",
"Y@	c #310404",
"Z@	c #6C0808",
"`@	c #8D0B0B",
" #	c #B24141",
".#	c #E86868",
"+#	c #0B0B3A",
"@#	c #1D1D86",
"##	c #1F1F8C",
"$#	c #8989CE",
"%#	c #340404",
"&#	c #4E0606",
"*#	c #580707",
"=#	c #590707",
"-#	c #5B0808",
";#	c #710A0A",
">#	c #AE1A1A",
",#	c #090931",
"'#	c #151562",
")#	c #1D1D83",
"!#	c #1D1D84",
"~#	c #1D1D85",
"{#	c #28288F",
"]#	c #5A5AC8",
"^#	c #2C0404",
"/#	c #2D0303",
"(#	c #2E0303",
"_#	c #300404",
":#	c #620909",
"<#	c #080831",
"[#	c #0B0B3C",
"}#	c #0C0C3F",
"|#	c #0D0D42",
"1#	c #12126C",
"                                                                                                                                ",
"                                                                                                                                ",
"                                                                                                                                ",
"                                                                                                                                ",
"          . + @ @ @ @ @ @ @ @ @ @ @ @ @ @ @ @ @ @ @ # $                                                                         ",
"        % & * = = = = = = = = = = = = = = = = = = = - ; >                                                                       ",
"        , ' ) ) ) ) ) ) ) ) ) ) ) ) ) ) ) ) ) ) ) ) ) - !                                                                       ",
"        , ' ) ) ) ) ) ) ) ) ) ~ { ) ) ) ) ) ) ) ) ) ) * ]                                                                       ",
"        , ' ) ) ) ) ) ) ) ) ) ^ / ( ) ) ) ) ) ) ) ) ) * _ : < < < < < < < < < < < < < < < < < < < [ } |                         ",
"        , ' ) ) ) ) ) ) ) ) ) 1 2 3 ~ ) ) ) ) ) ) ) ) * 4 5 6 6 6 6 6 6 6 6 6 6 6 6 6 6 6 6 6 6 6 7 8 9 0                       ",
"        , ' ) ) ) ) ) ) ) ) ~ a b c ~ ) ) ) ) ) ) ) ) * 4 d e e e e e e e e e e e e e e e e e e e e f g h                       ",
"        , ' ) ) ) ) ) ) ) ) ~ i j k l ) ) ) ) ) ) ) ) * 4 d e e e e e e m m e e e e e e e e e e e e n o p                       ",
"        , ' ) ) ) ) ) ) ) ) { q r s t ) ) ) ) ) ) ) ) * 4 d e e e e e e u v e e e e e e e e e e e e n w x                       ",
"        , ' ) ) ~ ~ ~ ~ ~ ^ y z r A B ^ ~ ~ ~ ~ ~ ~ ) * 4 d e e e e m C D E m e e e e e e e e e e e n w x                       ",
"        , ' ) l F G G G G H I A r r q G G G G G H J ) * 4 d e e e e K E L M C m e e e e e e e e e e n w x                       ",
"        , ' ) ) N O P A A A Q r r r Q A A A R z S 1 ) * 4 d e e e m T U V L W m e e e e e e e e e e n w x                       ",
"        , ' ) ) ~ y X R r r r r r r r r r Q Y N ) ) ) * 4 d e e e m W Z ` `  ...m e e e e e e e e e n w x                       ",
"        , ' ) ) ) ~ +.I @.r r r r r r r A k t ~ ) ) ) * 4 d e e m .. .` ` ` #.$.K e e e e e e e e e n w x                       ",
"        , ' ) ) ) ) ) %.B b r r r r r A &.+.~ ) ) ) ) * 4 d e e m *.=.` ` ` ` -.;.m e e e e e e e e n w x                       ",
"        , ' ) ) ) ) ) ) J >.r r r r r ,.'.~ ) ) ) ) ) * 4 d e m ).!.` ` ` ` ` =.~.e e e e e e e e e n w x                       ",
"        , ' ) ) ) ) ) ~ '.{.r r r r r Q ].~ ) ) ) ) ) * 4 d e m ~.^.` ` ` ` ` ` /.(.m e e e e e e e n w x                       ",
"        , ' ) ) ) ) ) ) _.r r P k z r r :.<.) ) ) ) ) * 4 d m u [.` ` ` ` ` ` ` }.|.e e e e e e e e n w x                       ",
"        , ' ) ) ) ) ) 1.2 r z 2.3.'.4.Q s 5.~ ) ) ) ) * 4 6.e 7.#.` ` ` ` ` ` ` ` 8.9.m e e e e e e n w x                       ",
"        , ' ) ) ) ) ~ 3 s 4.0.) ~ ~ a.b.{.c.~ ) ) ) ) * 4 6.9.8.` ` ` ` ` ` ` ` ` ^.d.e.e e e e e e n w x                       ",
"        , ' ) ) ) ) ~ S f.g.~ ) ) ) ~ h.i.j.{ ) ) ) ) * 4 d d.}.` ` ` ` ` ` ` ` ` ` k.l.m e e e e e n w x                       ",
"        , ' ) ) ) ) m.'.h.~ ) ) ) ) ) ) n.0.o.) ) ) ) * 4 p.q.` ` ` ` ` ` ` ` ` ` ` }.r.e.e e e e e n w x                       ",
"        , ' ) ) ) ) ) ~ ) ) ) ) ) ) ) ) ) ~ ) ) ) ) ) * s.t.^.` ` ` ` ` ` ` ` ` ` ` ` u.v.m e e e e n w x                       ",
"        w.x.) ) ) ) ) ) ) ) ) ) ) ) ) ) ) ) ) ) ) ) ) y.z.A.` ` ` ` ` ` ` ` ` ` ` ` ` }.B.C.e e e e n w x                       ",
"      D.E.F.G.H.H.H.H.H.H.H.H.H.H.H.H.H.H.H.H.H.H.H.I.J.K.L.M.N.O.P.` ` ` ` ` ` ` ` ` ` Q.R.m e e e n w x                       ",
"    S.T.U.V.W.X.X.X.X.X.X.X.X.X.X.X.X.X.X.X.X.X.X.X.Y.Z.`. +.+++@+#+` ` ` ` ` ` ` ` ` ` }.D $+e e e n w x                       ",
"    %+&+*+*+*+*+*+*+*+*+*+*+*+*+*+*+*+*+*+*+*+*+*+*+*+*+*+*+=+-+;+>+` ` ` ` ` ` ` ` ` ` ` ,+'+m e e n w x                       ",
"    )+!+*+*+*+*+*+*+*+*+*+*+*+*+~+{+~+~+*+*+*+*+*+*+*+*+*+*+*+]+^+/+` ` ` ` ` ` ` ` ` ` ` V (+_+e e n w x                       ",
"    )+!+*+*+*+*+*+*+*+*+~+{+=+:+<+[+}+|+1+{+~+*+*+*+*+*+*+*+*+]+2+3+` ` ` ` ` ` ` ` ` ` ` ` 4+5+K e n w x                       ",
"    )+!+*+*+*+*+*+*+*+{+6+7+8+9+0+a+b+c+d+e+}+*+~+*+*+*+*+*+*+]+2+f+L L L L L L L L L L L L 4+(+C e n w x                       ",
"    )+!+*+*+*+*+*+~+g+h+i+j+k+k+k+k+k+k+k+l+m+n+o+~+*+*+*+*+*+]+p+q+E E E E E E E E E E E E E r+C e n w x                       ",
"    )+!+*+*+*+*+~+1+s+0+t+k+k+k+k+k+k+k+k+k+k+u+v+w+{+*+*+*+*+]+x+y+K K K K K K K K K K K K K m e e n w z+                      ",
"    )+!+*+*+*+*+g+A+B+k+k+k+k+k+k+k+k+k+k+k+k+k+C+D+<+{+*+*+*+]+x+E+e e e e e e e e e e e e e e e e F+G+H+                      ",
"    )+!+*+*+*+I+J+K+k+k+k+k+k+k+k+k+k+k+k+k+k+k+k+L+M+:+*+*+*+]+x+N+O+O+O+O+O+O+O+O+O+O+O+O+O+O+O+O+P+Q+R+S+T+T+U+V+            ",
"    )+!+*+*+~+W+X+k+k+k+k+k+k+k+k+k+k+k+k+k+k+k+k+k+Y+Z+{+*+*+]+`+ @.@+@@@@@@@@@@@@@@@@@@@@@@@@@@@#@$@%@&@*@*@*@=@U+-@          ",
"    )+!+*+*+{+;@u+k+k+k+k+k+k+k+k+k+k+k+k+k+k+k+k+k+t+>@,@~+*+]+'@)@  !@~@{@{@]@^@^@^@^@^@^@^@^@^@^@/@(@_@_@*@*@*@:@<@          ",
"    )+!+*+*+[@D+k+k+k+k+k+k+k+k+k+k+k+k+k+k+k+k+k+k+k+j+}@~+*+]+|@1@  2@3@*@4@5@6@7@7@7@7@7@7@7@7@7@7@7@7@7@8@9@*@:@<@          ",
"    )+!+*+~+}+0+k+k+k+k+k+k+k+k+k+k+k+k+k+k+k+k+k+k+k+t+0@{+*+]+|@1@  2@3@*@a@b@c@c@c@c@c@c@c@c@c@c@c@c@c@c@d@e@*@:@<@          ",
"    )+!+*+I+h+u+k+k+k+k+k+k+k+k+k+k+k+k+k+k+k+k+k+k+k+k+f@g+*+]+|@1@  2@3@*@g@h@c@c@c@c@c@c@c@c@c@c@c@c@c@c@b@i@*@:@<@          ",
"    )+!+*+I+J+C+k+k+k+k+k+k+k+k+k+k+k+k+k+k+k+k+k+k+k+k+j@g+*+]+|@1@  2@3@*@g@h@c@c@c@c@c@c@c@c@c@c@c@c@c@c@b@i@*@:@<@          ",
"    )+!+*+I+7+k@k+k+k+k+k+k+k+k+k+k+k+k+k+k+k+k+k+k+k+k+d+g+*+]+|@1@  2@3@*@g@h@c@c@c@c@c@c@c@c@c@c@c@c@c@c@b@i@*@:@<@          ",
"    )+!+*+~+l@Y+k+k+k+k+k+k+k+k+k+k+k+k+k+k+k+k+k+k+k+k+8+=+*+]+|@1@  2@3@*@g@h@c@c@c@c@c@c@c@c@c@c@c@c@c@c@b@i@*@:@<@          ",
"    )+!+*+*+m@c+k+k+k+k+k+k+k+k+k+k+k+k+k+k+k+k+k+k+k+l+e+~+*+]+|@1@  2@3@*@g@h@c@c@c@c@c@c@c@c@c@c@c@c@c@c@b@i@*@:@<@          ",
"    )+!+*+*+g+f@t+k+k+k+k+k+k+k+k+k+k+k+k+k+k+k+k+k+k+n@o@~+*+]+|@1@  2@3@*@g@h@c@c@c@c@c@c@c@c@c@c@c@c@c@c@b@i@*@:@<@          ",
"    )+!+*+*+{+p@j+k+k+k+k+k+k+k+k+k+k+k+k+k+k+k+k+k+t+f@1+*+*+]+|@1@  2@3@*@g@h@c@c@c@c@c@c@c@c@c@c@c@c@c@c@b@i@*@:@<@          ",
"    )+!+*+*+*+q@r@t+k+k+k+k+k+k+k+k+k+k+k+k+k+k+k+k+n@s@{+*+*+]+|@1@  2@3@*@g@h@c@c@c@c@c@c@c@c@c@c@c@c@c@c@b@i@*@:@<@          ",
"    )+!+*+*+*+~+[+t@t+k+k+k+k+k+k+k+k+k+k+k+k+k+k+Y+A+u@*+*+*+]+|@1@  2@3@*@g@h@c@c@c@c@c@c@c@c@c@c@c@c@c@c@b@i@*@:@<@          ",
"    )+!+*+*+*+*+{+v@w@t+k+k+k+k+k+k+k+k+k+k+k+k+Y+x@y@*+*+*+*+]+|@1@  2@3@*@g@h@c@c@c@c@c@c@c@c@c@c@c@c@c@c@b@i@*@:@<@          ",
"    )+!+*+*+*+*+*+{+z@A@B@k+k+k+k+k+k+k+k+k+C+C@e+y@~+*+*+*+*+]+|@1@  2@3@*@g@h@c@c@c@c@c@c@c@c@c@c@c@c@c@c@b@i@*@:@<@          ",
"    )+!+*+*+*+*+*+*+~+D@E@9+F@t+k+k+k+k+B@G@H@I@=+~+*+*+*+*+*+]+|@1@  2@3@*@g@h@c@c@c@c@c@c@c@c@c@c@c@c@c@c@b@i@*@:@<@          ",
"    )+!+*+*+*+*+*+*+*+*+{+m@J@x@r@d+K@L@M@N@1+~+*+*+*+*+*+*+*+]+|@1@  2@3@*@g@h@c@c@c@c@c@c@c@c@c@c@c@c@c@c@b@i@*@:@<@          ",
"    )+!+*+*+*+*+*+*+*+*+*+*+~+{+*+*+*+=+~+~+*+*+*+*+*+*+*+*+*+]+'@1@  2@3@*@O@P@h@h@h@h@h@h@h@h@h@h@h@h@h@h@7@Q@*@:@<@          ",
"    %+R@*+*+*+*+*+*+*+*+*+*+*+*+*+*+*+*+*+*+*+*+*+*+*+*+*+*+*+=+S@T@  2@3@*@*@U@V@W@W@W@W@W@W@W@W@W@W@W@W@V@X@*@*@:@<@          ",
"    Y@Z@`@~+~+~+~+~+~+~+~+~+~+~+~+~+~+~+~+~+~+~+~+~+~+~+~+~+~+-+ #.#  +#@#*@*@*@############################*@*@*@T+$#          ",
"      %#&#*#=#=#=#=#=#=#=#=#=#=#=#=#=#=#=#=#=#=#=#=#=#=#=#=#-#;#>#    ,#'#)#!#!#!#!#!#!#!#!#!#!#!#!#!#!#!#!#!#!#~#{#]#          ",
"        ^#/#(#(#(#(#(#(#(#(#(#(#(#(#(#(#(#(#(#(#(#(#(#(#(#(#_#:#        <#[#}#}#}#}#}#}#}#}#}#}#}#}#}#}#}#}#}#}#|#1#            ",
"                                                                                                                                ",
"                                                                                                                                ",
"                                                                                                                                ",
"                                                                                                                                "};
