/* XPM */
static char *blockattack48[] = {
/* columns rows colors chars-per-pixel */
"48 48 54 1 ",
"  c #654600",
". c #654700",
"X c #6C4C00",
"o c #6D4C00",
"O c #6C4D00",
"+ c #6F4F00",
"@ c #715100",
"# c #8D6A00",
"$ c #8E6A00",
"% c #8F6A00",
"& c #8F6B00",
"* c #E5B600",
"= c #E6B700",
"- c #E7B800",
"; c #FECC00",
": c #FFCD00",
"> c #FFCE00",
", c #FFCF00",
"< c #FFD000",
"1 c #FED100",
"2 c #FED200",
"3 c #FED300",
"4 c #FED400",
"5 c #FED500",
"6 c #FDD800",
"7 c #FDD900",
"8 c #FED800",
"9 c #FDDA00",
"0 c #FDDC00",
"q c #FDDE00",
"w c #FDDF00",
"e c #FCE000",
"r c #FCE200",
"t c #FCE300",
"y c #FBE600",
"u c #FBE700",
"i c #FCE400",
"p c #FCE600",
"a c #FBE800",
"s c #FBE900",
"d c #FBEA00",
"f c #FBEB00",
"g c #FAEE00",
"h c #FAEF00",
"j c #FAF000",
"k c #FAF100",
"l c #F9F500",
"z c #FAF400",
"x c #F9F600",
"c c #F9F800",
"v c #F8FC00",
"b c #F8FE00",
"n c #F8FF00",
"m c None",
/* pixels */
"mm                                            mm",
"m    O@O++++++++++++++++++++++++++++++++++O    m",
"   &-<;;;<;;;<;<;;;;;<;;;<;<;;;;;<;;;<;<;<;-&   ",
"  &;;;;;;;<;;;;;<;<;;;<;;;;;<;<;;;<;;;;;;;;;;&  ",
"  -;;;;;;<;<;;;;;;;<;;;<;;;;;<;;;<;<;;;;;<;;;-  ",
" O<;;<;<;;;;<;<;<;;;<;;;<;<;;;<;;;;;<;<;;;<;<;O ",
" @<;<;;;;<;;;;;<;<;<;<;<;;;<;;;;;<;;;;;<;;;;;<@ ",
" @;;;;;<;;<;<;;;;;;;;;;;<;;;<;<;;;<;<;;;<;<;;;@ ",
" @;;;<;<;<;;;<;<;<;<;<;;;;;;;;;<;<;<;;;<;;;;;;@ ",
" @;;;;;;;;<;;;;;;;;;;;;55;<;<;;;;;;;<;;;<;<;<;@ ",
".@<;;<;;;;;;;<;;;<;;;<;cc<;;;<;<;<;;;<;<;;;<;;@ ",
".@;;;;<;<;<;;;<;;;<;;;fnnf;;;;;;;;<;;;;;<;;;<;@ ",
".@;<;;;<;;;<;;;<;;;<;9nnnn9;;;;<;<;<;;;;;<;;;<@ ",
" @;;<;;;<;;;<;;;<;;;;xnnnnx;<;;;;;;;<;<;;;<;;;@ ",
" @;<;<;<;<;<;<;<;;;<rnnnnnnr;<;<;<;;;;;<;;;;;<@ ",
" @;;;;;;;;;;;;;;;<;<nnnnnnnn5;;;;;<;<;;;<;<;;;@ ",
".@;<;<;<<;;;;<;;<;;knnnnnnnnk;;;;;;;;<;;<;<;;<@ ",
".@;;;;;;;;;;;;;<qscnnnnnnnnnncfq<;<;;;;<;;;;;;@ ",
" @;;;<;;;;;<rfcnnnnnnnnnnnnnnnnnnxfq<;;;;;<;;<@ ",
" @<;;;<;;<pnnnnnnnnnnnnnnnnnnnnnnnnnnp;;;<;;;;@ ",
" @;;;;;;;;qnnnnnnnnnnnnnnnnnnnnnnnnnnq<;<;;;<;@ ",
" @<;<;<;;<;pnnnnnnnnnnnnnnnnnnnnnnnnp;;;;;;<;;@.",
" @;;;;;<;<;;hnnnnnnnnnnnnnnnnnnnnnnk;;<;<;<;<;@.",
" @<;<;;;;;;;;xnnnnnnnnnnnnnnnnnnnnx<;;;;;;;;;;@.",
" @;<;<;;;<;<;<xnnnnnnnnnnnnnnnnnnx<;;;<;;;;;;;@ ",
" @;;;;<;;;;;<;5nnnnnnnnnnnnnnnnnn5;;;<;;<;<;<;@ ",
" @;<;;;;;<;;;<;rnnnnnnnnnnnnnnnnr;<;;;;;;;;<;;@ ",
" @;;<;<;;;<;;;;9nnnnnnnnnnnnnnnn9;;;;<;<<;;;<;@ ",
" @;;;<;;;<;<;;;9nnnnnnnnnnnnnnnn9;;;;;;;;<;;;<@ ",
" @<;;;<;;;;;<;;qnnnnnnnnnnnnnnnnq;;<<;<;;;<;;;@ ",
" @;<;;;;;<;;;;;pnnnnnnnnnnnnnnnnr;;;;;;<;;;;;<@ ",
" @;;<;<;;;<;<;;pnnnnnnnnnnnnnnnnf;<;<;;;<;<;;;@ ",
" @;;;<;<;;;<;<;fnnnnnnnxxnnnnnnnf;;;;<;<;;;<;<@ ",
" @<;;;;;<;;;;;;knnnncf5<;5pnnnnnh;;;;;;;<;;;;;@ ",
" @;;;<;;;<;<;;;knnxp<;<;<;;<rxnnk<;<;<;;;<;<;;@ ",
" @<;;;<;;;;;;;;rp9;;;;;;;;;;;;9fr;;;;;<;;;;;<;@ ",
" @;<;;;<<;<;;;;;;<;<;;;;;;<;;;<;;;;<;;;<;;;;;<@ ",
" @;;<;;;;;;;;<;<;;;;<;<;;<;;;<;;;;;;<;;;<;<;;;@ ",
" @;<;<;<;;<;<;;;;<;;;;;<;;;;;;;;;<;<;<;<;;;<;;@ ",
" @;;;;;;;<;;;;;<;;<;<;;;;<;<;<;<;;;;;;;;<;;;<;@ ",
".@;;<;<;;;<;;;;;;<;<;;;<;<;<;<;<;;;;;;;;;;;<;<@ ",
".@;<;;;;;<;;;<;<;;;;<;;;;;;;;;;;<;<;<;<;<;;;;;@ ",
".O;;;;<;;;;;<;;;;<;;;<;<;<;;;<;;;;;<;;;<;<;<;;O ",
"  -;;<;;;<;<;;;<;;<;;;;;;;<;;;<;<;;;<;;;;;;;;=  ",
"  &;;;;;;;;;;;;;;<;<;;;;;;;<;;;;;<;;;<;<;;;;;&  ",
"   &-;;<;<;;;<;<;;;;<;<;<;;;;;<;;;<;;;;;<;;=&. .",
"m    O++@+++++@+++++++++++@+++@O++++++++++O    m",
"mm       .                                   .mm"
};
